<svg xmlns="http://www.w3.org/2000/svg" viewBox="0 0 1000 1000"><defs><style>.cls-1{fill:#fff;}</style></defs><title>isologo_white</title><g id="Layer_4" data-name="Layer 4"><g id="Layer_3" data-name="Layer 3"><path class="cls-1" d="M302.22,497.76a48.25,48.25,0,1,0,80.54,35.85c0-.57,0-1.14,0-1.7-18.76-9.42-38.35-18.32-58.26-26Q313.4,501.71,302.22,497.76Z"/><path class="cls-1" d="M346,703.57c4.51,2.62,9.31,5.09,14.3,7.42,60.05-13.15,110-63.83,135.06-112.79l-.57-.9-9.67-6.19c-16.57,12.66-78.85,52.13-195.79,36.93C157.45,610.9,155,536.26,166.19,491.58c-9.52,11.08-15.49,28.95-15.15,40.29,2.09,70,37.78,128.47,91.18,159.16C266.33,656.76,303.22,678.64,346,703.57Z"/><path class="cls-1" d="M328.76,494.75c68.65,26.35,133.16,67.1,174,93.39,41-26.32,103.62-65.38,170.15-90.92a943.39,943.39,0,0,1,150.82-43.83,9.65,9.65,0,0,0,5.33-5.79,9.88,9.88,0,0,0-1-8.38c-30.47-48.71-90.81-97.87-156.92-97.87-67.37,0-131.67,42.72-163.81,108.84h0a6,6,0,0,1-10.9-.24c-29.24-67.48-94.37-111.08-165.91-111.08-66.11,0-126.44,49.16-156.91,97.88a9.82,9.82,0,0,0-1,8.37,9.61,9.61,0,0,0,5.32,5.79A942.81,942.81,0,0,1,328.76,494.75Z"/><path class="cls-1" d="M619.59,534.06a48.26,48.26,0,1,0,82.24-34.67q-12.39,4.35-24.62,9C657.53,516,638.16,524.76,619.59,534.06Z"/><path class="cls-1" d="M436.86,686.74C418,701.23,398.15,711.89,378,718.46c17.63,6.8,36.54,12.47,54.05,17.89a205.39,205.39,0,0,0,109,3.48c23.73-5.73,52.28-12.31,77.27-20.89-50.57-19-91.44-63.08-115.41-109.29A250.28,250.28,0,0,1,436.86,686.74Z"/><path class="cls-1" d="M713,628c-113.74,14.78-175.76-22.14-194.31-35.82l-7.23,4.61a6,6,0,0,1-.39,2.32c24.39,49.86,69.48,98.16,125.19,113a157.73,157.73,0,0,0,17.36-8.55c43.87-25.54,81.52-47.87,105.57-9.9,53.55-30.65,89.37-89.16,91.46-159.33.32-10.61-4.9-27-13.38-38.08C847,541.29,840.39,611.49,713,628Z"/><path class="cls-1" d="M990.26,545.74s-6.78,0-15.13-9.91-3.65-31.31-3.65-31.31L960,498.26c-11.48,13.57-24.52,11.48-37.57,7.31s-4.69-37.57-4.69-43.31a57.59,57.59,0,0,0-1.57-12c-8.42-12-39.86-17.35-54-19.18a375.21,375.21,0,0,0-81.4-145l4-2.09,16.82-12.53a26.17,26.17,0,0,0,11-17.86c1.47-11.84-6.06-19.86-7-20.87q8.79-11.74,17.6-23.48a23.16,23.16,0,0,0-9-39.92A20.77,20.77,0,0,0,791.48,163a22,22,0,0,0-21.91-33.26,24.85,24.85,0,0,0-15.92-19.69c-10.18-3.59-22.07.38-28.69,9.91l-14.87,25.43a24,24,0,0,0-29.74,5.48l-12.92,22.31L676,143.48a20.68,20.68,0,0,0-6.26-24.65,20.12,20.12,0,0,0-1.17-14,18.5,18.5,0,0,0-3.13-4.44l4.3-14.86c2.74-13.64-4.68-27.22-17.08-32.09C639.32,48.23,623.48,54.4,617,68q-14.49,35.61-29,71.21a21,21,0,0,0-21.13,9q1.17-40.89,2.35-81.78a26.41,26.41,0,0,0-49.7-11.74A22.81,22.81,0,0,0,504,59.74c-8.27,6.9-8,17.15-8,18.39l-1.17,39.52-2.35,1.57a25.61,25.61,0,0,0-30.91-5.48l-8.22-28.57a24,24,0,0,0-30.52-13.69l-.78-5.09a31.09,31.09,0,0,0-53.22-15.65C359.91,39,344,35.11,331.3,41.22c-13.89,6.68-20.69,23.68-14.87,38.87l13.7,39.13c-.78,2.35-1.56,4.69-2.35,7a11.18,11.18,0,0,0-5.08-2.87,11.54,11.54,0,0,0-7.83.91,20.59,20.59,0,0,0-10.17-10,20.89,20.89,0,0,0-16.05-.13,21.88,21.88,0,0,0-32.08,28.57l28.95,41.47a40.26,40.26,0,0,0,.39,20.74L243.65,151.3a22,22,0,0,0-34.82,25.83L255.78,239l-41.87-45.79a29.55,29.55,0,0,0-30.13-5.47l-3.52-3.92c-10.7-11-27.6-12.59-39.52-4.3-10.68,7.42-15.4,21.44-11.35,34.43-1.5.45-13.08,4.08-17.61,15.66-4,10.13-.89,22.2,7.83,30.13l79,54.39,1.4,0a374.36,374.36,0,0,0-57.38,113.46c-17.95-.16-131.58,3.83-133,130-1.45,127,127,126.14,145.65,125.34,56.77,135.41,190.57,230.53,346.59,230.53,156.58,0,290.78-95.81,347.2-232,24.54-.41,81-5.17,114.56-41.71C999.13,601,990.26,545.74,990.26,545.74Zm-127.64-11c-1.6,53.4-21.76,102.49-56.78,138.23a184.86,184.86,0,0,1-41,31.5q2.39,5.3,4.53,11.66c23.48,69.65-94.54,169.3-276.89,169.3-157.3,0-285.6-100.17-262.3-169.3a123.41,123.41,0,0,1,5.87-14.53,184.78,184.78,0,0,1-40.27-31.11c-35-35.74-55.18-84.83-56.77-138.23-.56-18.73,12.39-51.17,33.35-60.11,1.45-3.73,2.82-6.87,3.94-9.27l-1.32-.27-.49-.1-.46-.18a21.73,21.73,0,0,1-10.63-31.91,242.06,242.06,0,0,1,70.49-72.21c31.05-20.48,64.46-31.3,96.59-31.3,72.33,0,138.47,41.7,171.7,107.22a212.68,212.68,0,0,1,64.94-71.36c31.76-21.84,67.72-33.38,104-33.38,32.14,0,65.54,10.82,96.6,31.3a242.18,242.18,0,0,1,70.49,72.21,21.79,21.79,0,0,1,2.2,18.56,21.57,21.57,0,0,1-12.84,13.35l-.46.18-.15,0c1.26,2.83,2.73,6.39,4.24,10.52C851,485.55,863.16,516.56,862.62,534.7Z"/><path class="cls-1" d="M500,803.22a13.35,13.35,0,0,0,0,1.83C500,804.46,500,803.86,500,803.22Z"/><path class="cls-1" d="M719.09,741.39v12.13c-.39,17.22-15.66,17.61-15.66,17.61s-27.78.39-39.91.78-18-11.34-18-11.34v23.86c-.78,15.27-16.43,16.05-16.43,16.05s-26.61.78-39.92.39-16.43-12.52-16.43-12.52l.39,12.52c.39,16.43-12.52,18-12.52,18s-24.65,1.17-43.44.78c-14.83-.31-17-10.38-17.22-14.6-.6,13.55-16,15-16,15s-20,.79-38,.39-18.79-15.26-18.79-15.26v-18c0,8.61-14.87,14.09-14.87,14.09s-22.3.78-40.3-.39-18-19.17-18-19.17V759.78c-.78,11-18,12.13-18,12.13s-30.13.39-43.43-1.56S280,743.74,280,743.74c-1.17,9.39-13.43,9.39-13.43,9.39C319,858.52,500.35,856.43,500.35,856.43c198-2.34,231.65-103.3,231.65-103.3C721.83,752.74,719.09,741.39,719.09,741.39Z"/></g></g></svg>