<?xml version="1.0" encoding="utf-8"?>
<!-- Generator: Adobe Illustrator 24.0.0, SVG Export Plug-In . SVG Version: 6.00 Build 0)  -->
<svg version="1.1" xmlns="http://www.w3.org/2000/svg" xmlns:xlink="http://www.w3.org/1999/xlink" x="0px" y="0px"
	 viewBox="0 0 27.3 28" style="enable-background:new 0 0 27.3 28;" xml:space="preserve">
<style type="text/css">
	.st0{fill-rule:evenodd;clip-rule:evenodd;fill:#FFFFFF;}
</style>
<g id="Layer_2">
</g>
<g id="Layer_1">
	<path class="st0" d="M23.4,6.4l-3.5,0.9l0.9-3.5c0.5-1.9-0.6-3-2.5-2.5L5,4.9C3.1,5.4,2.7,7,4.1,8.4l2.5,2.5l-3.4,0.9
		c-1-0.1-1.9,0.7-2,1.7c-0.1,0.8,0.4,1.5,1,1.8l9.8,9.8c1.4,1.4,2.9,1,3.4-0.9l0.9-3.4l2.5,2.5c0.4,0.9,1.5,1.3,2.4,0.9
		c0.7-0.3,1.1-1,1-1.8L26,8.9C26.5,7.1,25.3,5.9,23.4,6.4z"/>
</g>
</svg>
